<?xml version="1.0" encoding="utf-8"?>
<!-- Generator: Adobe Illustrator 16.0.0, SVG Export Plug-In . SVG Version: 6.00 Build 0)  -->
<!DOCTYPE svg PUBLIC "-//W3C//DTD SVG 1.1//EN" "http://www.w3.org/Graphics/SVG/1.1/DTD/svg11.dtd">
<svg version="1.1" id="Layer_1" xmlns="http://www.w3.org/2000/svg" xmlns:xlink="http://www.w3.org/1999/xlink" x="0px" y="0px"
	 width="128px" height="128px" viewBox="0 0 128 128" enable-background="new 0 0 128 128" xml:space="preserve">
<g id="XMLID_2_">
	<g>
		<path fill="#0D3C70" d="M63.64,126.961c-7.253-13.601-36.269-42.615-44.882-61.202c-2.72-5.894-4.534-12.241-4.534-19.042
			C14.677,21.783,36.892,0.929,63.64,0.929c26.748,0,49.415,20.854,49.415,45.789c0,6.8-1.813,13.147-4.533,19.042l0,0
			C99.907,84.346,70.894,113.36,63.64,126.961L63.64,126.961z"/>
	</g>
	<g>
		<path fill="none" stroke="#87C2DE" stroke-width="0.4569" stroke-linecap="round" stroke-miterlimit="10" d="M18.758,65.759
			c-2.72-5.894-4.534-12.241-4.534-19.042C14.677,21.783,36.892,0.929,63.64,0.929c26.748,0,49.415,20.854,49.415,45.789
			c0,6.8-1.813,13.147-4.533,19.042"/>
		
			<line fill="none" stroke="#87C2DE" stroke-width="0.4569" stroke-linecap="round" stroke-miterlimit="10" x1="64.093" y1="126.961" x2="64.093" y2="126.961"/>
		<path fill="none" stroke="#87C2DE" stroke-width="0.4569" stroke-linecap="round" stroke-miterlimit="10" d="M18.758,65.759
			c8.613,18.587,37.628,47.602,44.882,61.202"/>
		<path fill="none" stroke="#87C2DE" stroke-width="0.4569" stroke-linecap="round" stroke-miterlimit="10" d="M108.521,65.759
			c-8.614,18.587-37.628,47.602-44.882,61.202l0,0l0,0"/>
	</g>
</g>
</svg>
